<?xml version="1.0" encoding="UTF-8"?>
<!DOCTYPE svg  PUBLIC '-//W3C//DTD SVG 1.1//EN'  'http://www.w3.org/Graphics/SVG/1.1/DTD/svg11.dtd'>
<svg width="210mm" height="297mm" clip-rule="evenodd" fill-rule="evenodd" image-rendering="optimizeQuality" shape-rendering="geometricPrecision" text-rendering="geometricPrecision" version="1.1" viewBox="0 0 21000 29700" xml:space="preserve" xmlns="http://www.w3.org/2000/svg">
 <defs>
  <style type="text/css">
   <![CDATA[
    .fil0 {fill:#734200}
   ]]>
  </style>
 </defs>
  <path class="fil0" d="m10478 9394c-1447 0-2620 1173-2620 2619 0 1447 1173 2620 2620 2620 1446 0 2619-1173 2619-2620 0-1446-1173-2619-2619-2619zm-56 1317c316-339 359-570 254-1123 262 285 341 900 40 1215-269 281-379 531-294 1130-236-318-358-838 0-1222zm-472 28c220-235 250-396 177-780 181 198 236 625 27 844-186 195-263 368-204 784-163-221-248-582 0-848zm1013 0c219-235 249-396 177-780 181 198 236 625 27 844-187 195-263 368-204 784-163-221-248-582 0-848zm-1231 2428c-101 8-149 2-234-32-84-33-166-102-248-236-24-39-43-106-49-183-4-61 1-126 22-184 19-53 52-100 103-132 37-23 85-38 147-41 26 310 121 590 259 808zm100 132c71 85 151 156 237 211-272-14-517-8-819-37-57-6-74 37-29 59 205 99 434 178 664 176h1192c230 2 460-77 665-176 45-22 28-65-29-59-302 29-548 23-813 39 361-221 613-726 613-1314 0-22-1-44-1-65l-2043-1c-1 22-1 44-1 66v15c-85 6-161 28-218 63-82 50-134 124-164 207-28 79-36 165-30 244 7 99 35 191 70 248 101 165 207 252 318 296 112 44 265 38 383 30"/>
  <path class="fil0" d="m11648 10185l-71-71 71-72v143zm72 72l-72-72 72-71v143zm71 0l-71-72 71-71v143zm-143-143l72-72 71 72h-143zm51-132c91 0 166 74 166 165 0 92-75 166-166 166-92 0-166-74-166-166 0-91 74-165 166-165zm0-20c102 0 185 83 185 185 0 103-83 186-185 186s-185-83-185-186c0-102 83-185 185-185z"/>
</svg>
